<?xml version="1.0" encoding="utf-8"?><!-- Uploaded to: SVG Repo, www.svgrepo.com, Generator: SVG Repo Mixer Tools -->
<svg width="800px" height="800px" viewBox="0 0 24 24" fill="none" xmlns="http://www.w3.org/2000/svg"><path d="M15 13a1 1 0 1 0 0-2 1 1 0 0 0 0 2ZM15 19a1 1 0 1 0 0-2 1 1 0 0 0 0 2ZM15 7a1 1 0 1 0 0-2 1 1 0 0 0 0 2ZM9 13a1 1 0 1 0 0-2 1 1 0 0 0 0 2ZM9 19a1 1 0 1 0 0-2 1 1 0 0 0 0 2ZM9 7a1 1 0 1 0 0-2 1 1 0 0 0 0 2Z" stroke="#000000" stroke-width="1.5" stroke-miterlimit="10"/></svg>